HIERARCHY
ROOT hip
{
	OFFSET 0.000000 0.000000 0.000000 
	CHANNELS 6 Xposition Yposition Zposition Xrotation Zrotation Yrotation
	JOINT abdomen
	{
		OFFSET 0.000000 3.402643 0.000000 
		CHANNELS 3 Xrotation Zrotation Yrotation
		JOINT chest
		{
			OFFSET 0.000000 8.438565 -0.680529 
			CHANNELS 3 Xrotation Zrotation Yrotation
			JOINT neck
			{
				OFFSET 0.000000 10.207942 -0.272212 
				CHANNELS 3 Xrotation Zrotation Yrotation
				JOINT head
				{
					OFFSET 0.000000 3.130431 0.000000 
					CHANNELS 3 Xrotation Zrotation Yrotation
					End Site
					{
						OFFSET 0.000000 3.130435 0.000000 
					}
				}
			}
			JOINT lCollar
			{
				OFFSET 3.470700 6.669187 -0.816635 
				CHANNELS 3 Yrotation Zrotation Xrotation
				JOINT lShldr
				{
					OFFSET 3.198488 0.000000 0.000000 
					CHANNELS 3 Zrotation Yrotation Xrotation
					JOINT lForeArm
					{
						OFFSET 10.139888 0.000000 0.000000 
						CHANNELS 3 Yrotation Zrotation Xrotation
						JOINT lHand
						{
							OFFSET 8.370511 0.000000 0.000000 
							CHANNELS 3 Zrotation Yrotation Xrotation
							End Site
							{
								OFFSET 4.083176 0.000000 0.000000 
							}
						}
					}
				}
			}
			JOINT rCollar
			{
				OFFSET -3.470700 6.669187 -0.816635 
				CHANNELS 3 Yrotation Zrotation Xrotation
				JOINT rShldr
				{
					OFFSET -3.198488 0.000000 0.000000 
					CHANNELS 3 Zrotation Yrotation Xrotation
					JOINT rForeArm
					{
						OFFSET -10.139888 0.000000 0.000000 
						CHANNELS 3 Yrotation Zrotation Xrotation
						JOINT rHand
						{
							OFFSET -8.370511 0.000000 0.000000 
							CHANNELS 3 Zrotation Yrotation Xrotation
							End Site
							{
								OFFSET -4.083176 0.000000 0.000000 
							}
						}
					}
				}
			}
		}
	}
	JOINT lThigh
	{
		OFFSET 5.308129 -1.633274 1.361059 
		CHANNELS 3 Xrotation Zrotation Yrotation
		JOINT lShin
		{
			OFFSET -2.041588 -20.007561 0.000000 
			CHANNELS 3 Xrotation Zrotation Yrotation
			JOINT lFoot
			{
				OFFSET 0.000000 -19.190928 -1.224953 
				CHANNELS 3 Xrotation Yrotation Zrotation
				End Site
				{
					OFFSET 0.000000 -2.449906 4.627600 
				}
			}
		}
	}
	JOINT rThigh
	{
		OFFSET -5.308129 -1.633274 1.361059 
		CHANNELS 3 Xrotation Zrotation Yrotation
		JOINT rShin
		{
			OFFSET 2.041588 -20.007561 0.000000 
			CHANNELS 3 Xrotation Zrotation Yrotation
			JOINT rFoot
			{
				OFFSET 0.000000 -19.190928 -1.224953 
				CHANNELS 3 Xrotation Yrotation Zrotation
				End Site
				{
					OFFSET 0.000000 -2.449906 4.627600 
				}
			}
		}
	}
}
MOTION
Frames: 6
Frame Time: 0.016667
0.693735 40.077011 -0.964761 6.270710 5.640100 10.648900 -13.757300 -3.915020 7.107620 21.494200 0.419866 3.131940 -17.715700 17.330299 -16.687401 3.721140 13.506200 -4.150640 2.000000 -2.000000 0.000000 93.719299 171.813004 1.582100 99.912697 -0.189632 0.154103 0.352305 0.054015 19.660299 -2.000000 2.000000 0.000000 96.897697 2.019060 -143.901993 -73.506401 0.253664 0.131098 179.889008 179.876999 -6.794710 -9.176567 1.490492 12.630067 39.638306 2.547172 2.812861 -13.347095 22.843403 6.822244 -24.847847 -17.680614 -19.363337 67.959549 -0.615717 -4.250559 -25.897673 -18.100817 -9.324266 
0.469474 39.901470 -0.317174 6.137600 6.029950 9.915300 -13.676700 -4.111350 6.467370 21.572300 0.644430 2.794740 -15.681600 17.154200 -14.725100 4.091680 13.056400 -3.578350 2.000000 -2.000000 0.000000 91.796097 172.716003 3.654560 97.666603 -0.195307 0.154981 0.355947 0.044841 23.185699 -2.000000 2.000000 0.000000 97.166603 0.366817 -147.908997 -73.750504 0.253106 0.131262 179.886002 179.876007 -7.781030 -7.915758 1.382629 13.268342 39.228531 2.643514 2.765871 -12.475669 24.157213 6.714289 -26.842295 -19.801737 -17.389038 68.457428 -0.624354 -4.241879 -26.542097 -17.262630 -9.118319 
0.267252 39.714989 0.406665 5.793510 5.994840 9.016080 -13.593300 -4.189430 5.728310 21.709101 0.654165 2.425380 -13.964100 16.962999 -12.524600 4.290960 12.675000 -2.859850 2.000000 -2.000000 0.000000 90.214798 173.207001 6.429160 95.996696 -0.199546 0.155489 0.355256 0.046714 22.472799 -2.000000 2.000000 0.000000 96.949203 -1.309740 -154.095001 -74.131401 0.252232 0.131514 179.903000 179.891006 0.080302 -6.315933 1.685369 13.766762 38.946167 2.736519 2.723990 -13.448832 24.721508 7.285132 -29.146744 -21.410757 -14.649218 67.885437 -0.735067 -4.196240 -24.636858 -19.186890 -9.126799 
0.068551 39.464409 1.314540 5.057820 6.079930 6.367240 -13.440000 -4.077610 5.496450 22.226801 0.907817 2.292240 -11.447400 15.762900 -9.828040 4.757400 11.852900 -2.034740 2.000000 -2.000000 0.000000 -91.298203 6.289300 -171.694000 94.629501 -0.203026 0.155813 0.351320 0.056241 18.791201 -2.000000 2.000000 0.000000 95.672302 -3.941760 -156.268005 -77.139198 0.245280 0.133295 179.893005 179.871994 -4.548580 -4.015675 2.005939 16.084017 39.190815 2.855135 2.692007 -15.002118 25.778164 8.212143 -31.339760 -22.218925 -10.821283 67.195816 -0.861627 -4.153707 -24.400410 -18.963720 -8.858435 
-0.177537 39.212681 2.049352 4.953680 5.399800 5.477770 -13.593700 -3.875950 4.186610 22.187799 1.054260 1.670820 -8.758610 13.198700 -7.192620 5.267640 10.502800 -1.363260 2.000000 -2.000000 0.000000 -92.703300 5.494270 -169.250000 94.004501 -0.204620 0.155934 0.355789 0.045278 23.019699 -2.000000 2.000000 0.000000 93.574898 -5.753820 -158.246002 -79.600098 0.239529 0.134479 179.891998 179.869995 -5.368910 -2.910059 2.702896 16.155527 39.437389 2.946059 2.660500 -15.714938 26.616154 8.697627 -33.277855 -22.667307 -8.919727 66.368629 -0.990120 -4.097164 -24.351603 -19.093052 -8.819746 
-0.371250 39.007404 2.923961 4.284630 6.407970 5.010600 -13.484600 -4.210990 2.791720 22.207500 1.317810 0.956160 -7.738650 11.797400 -4.639360 5.253870 9.858440 -0.423278 2.000000 -2.000000 0.000000 -93.851997 2.870670 -163.589996 95.244698 -0.201459 0.155678 0.358389 0.037556 25.929800 -2.000000 2.000000 0.000000 91.448303 -7.262230 -160.602997 -82.412598 0.232901 0.135528 179.895996 179.873993 -3.298590 -0.976905 1.477516 16.347729 39.619137 3.001637 2.657174 -16.214170 27.807642 9.230421 -34.754707 -25.237209 -6.526840 65.655518 -1.177462 -4.011273 -22.955986 -19.461390 -8.341858 
